HIERARCHY
ROOT joint_Root
{
	OFFSET 0.0 0.0 0.0
	CHANNELS 6 Xposition Yposition Zposition Zrotation Xrotation Yrotation 
	JOINT Hips
	{
		OFFSET -17.1583 93.1646 452.98
		CHANNELS 6 Xposition Yposition Zposition Zrotation Xrotation Yrotation 
		JOINT Spine
		{
			OFFSET 15.7357 0.0 0.0
			CHANNELS 6 Xposition Yposition Zposition Zrotation Xrotation Yrotation 
			JOINT Chest
			{
				OFFSET 8.98455 -0.406207 0.0
				CHANNELS 6 Xposition Yposition Zposition Zrotation Xrotation Yrotation 
				JOINT Neck
				{
					OFFSET 16.3773 0.0 0.0
					CHANNELS 6 Xposition Yposition Zposition Zrotation Xrotation Yrotation 
					JOINT Head
					{
						OFFSET 6.45672 0.0 0.0
						CHANNELS 6 Xposition Yposition Zposition Zrotation Xrotation Yrotation 
						End Site
						{
							OFFSET 0.0 0.0 0.0
						}
					}
				}
				JOINT Shoulder_L
				{
					OFFSET 12.9942 -0.242716 4.98039
					CHANNELS 6 Xposition Yposition Zposition Zrotation Xrotation Yrotation 
					JOINT UpperArm_L
					{
						OFFSET 5.34809 0.0 0.0
						CHANNELS 6 Xposition Yposition Zposition Zrotation Xrotation Yrotation 
						JOINT LowerArm_L
						{
							OFFSET 24.3286 1.87007e-05 0.0
							CHANNELS 6 Xposition Yposition Zposition Zrotation Xrotation Yrotation 
							JOINT Hand_L
							{
								OFFSET 22.2916 0.0 0.0
								CHANNELS 6 Xposition Yposition Zposition Zrotation Xrotation Yrotation 
								End Site
								{
									OFFSET 0.0 0.0 0.0
								}
							}
						}
					}
				}
				JOINT Shoulder_R
				{
					OFFSET 12.9945 -0.242716 -4.98039
					CHANNELS 6 Xposition Yposition Zposition Zrotation Xrotation Yrotation 
					JOINT UpperArm_R
					{
						OFFSET -5.34813 0.0 0.0
						CHANNELS 6 Xposition Yposition Zposition Zrotation Xrotation Yrotation 
						JOINT LowerArm_R
						{
							OFFSET -24.3289 0.000322201 0.0
							CHANNELS 6 Xposition Yposition Zposition Zrotation Xrotation Yrotation 
							JOINT Hand_R
							{
								OFFSET -22.2915 -0.000108084 0.0
								CHANNELS 6 Xposition Yposition Zposition Zrotation Xrotation Yrotation 
								End Site
								{
									OFFSET 0.0 0.0 0.0
								}
							}
						}
					}
				}
			}
		}
		JOINT UpperLeg_L
		{
			OFFSET -2.19248 -6.46944 0.0
			CHANNELS 6 Xposition Yposition Zposition Zrotation Xrotation Yrotation 
			JOINT LowerLeg_L
			{
				OFFSET 39.0811 0.0 -1.23785e-05
				CHANNELS 6 Xposition Yposition Zposition Zrotation Xrotation Yrotation 
				JOINT Foot_L
				{
					OFFSET 40.9854 0.0 -1.26872e-05
					CHANNELS 6 Xposition Yposition Zposition Zrotation Xrotation Yrotation 
					JOINT Toes_L
					{
						OFFSET 11.7543 0.0 0.0
						CHANNELS 6 Xposition Yposition Zposition Zrotation Xrotation Yrotation 
						End Site
						{
							OFFSET 0.0 0.0 0.0
						}
					}
				}
			}
		}
		JOINT UpperLeg_R
		{
			OFFSET -2.19251 6.46944 0.0
			CHANNELS 6 Xposition Yposition Zposition Zrotation Xrotation Yrotation 
			JOINT LowerLeg_R
			{
				OFFSET -39.0811 -0.00228153 -0.0401928
				CHANNELS 6 Xposition Yposition Zposition Zrotation Xrotation Yrotation 
				JOINT Foot_R
				{
					OFFSET -40.9854 0.0 0.0
					CHANNELS 6 Xposition Yposition Zposition Zrotation Xrotation Yrotation 
					JOINT Toes_R
					{
						OFFSET -11.7543 0.0 0.0
						CHANNELS 6 Xposition Yposition Zposition Zrotation Xrotation Yrotation 
						End Site
						{
							OFFSET 0.0 0.0 0.0
						}
					}
				}
			}
		}
	}
}
MOTION
Frames:	5
Frame Time:	0.0333333
0.000000 0.000000 0.000000 0.000000 0.000000 -0.000000 -4.229610 92.049700 -1.470290 85.771700 2.948650 5.922990 15.735700 0.000005 -0.000001 86.108000 86.166900 -84.157100 8.984550 -0.406207 -0.000000 -0.103298 -0.654123 3.898910 16.377300 -0.000001 -0.000001 8.135240 0.666988 -1.163080 6.456720 -0.000001 -0.000000 -5.544800 -1.357030 3.635760 12.994200 -0.242716 4.980390 -93.731000 10.472200 -70.263500 5.348090 -0.000007 -0.000001 -71.248300 11.362600 -0.309994 24.328600 0.000019 0.000005 10.957100 24.962500 -24.642900 22.291600 -0.000001 0.000005 -7.557260 4.973340 7.883090 12.994500 -0.242716 -4.980390 87.179700 7.713950 -69.846500 -5.348130 -0.000001 -0.000004 -67.986400 29.737200 -5.472620 -24.328900 0.000322 -0.000009 1.298470 4.896080 -14.884400 -22.291500 -0.000108 -0.000004 -1.510140 5.313160 -0.299635 -2.192480 -6.469440 -0.000000 -174.750000 4.882980 -2.429800 39.081100 -0.000007 -0.000012 0.349067 -0.678964 27.209300 40.985400 -0.000006 -0.000013 -0.136805 2.811570 -74.898600 11.754300 -0.000000 0.000003 -0.000526 0.176053 -9.435700 -2.192510 6.469440 -0.000001 -171.792000 13.159100 -175.513000 -39.081100 -0.002282 -0.040193 0.131513 -0.468797 15.292800 -40.985400 0.000008 0.000006 6.272860 1.501750 -70.829500 -11.754300 -0.000006 -0.000006 -0.008369 0.258689 -6.066680
0.000000 0.000000 0.000000 0.000000 0.000000 -0.000000 -4.276140 92.064600 -1.521790 85.835600 3.007580 5.763060 15.735700 0.000005 -0.000001 85.948900 86.172000 -84.000700 8.984550 -0.406207 -0.000000 -0.114635 -0.674644 3.893350 16.377300 -0.000001 -0.000001 7.751980 0.596050 -1.271900 6.456720 -0.000001 -0.000000 -5.650010 -1.346990 2.813630 12.994200 -0.242716 4.980390 -93.868300 10.866200 -70.268300 5.348090 -0.000007 -0.000001 -69.832400 7.810150 -1.024350 24.328600 0.000019 0.000005 11.616900 24.935800 -25.994300 22.291600 -0.000001 0.000005 -9.546130 4.939990 8.575500 12.994500 -0.242716 -4.980390 87.211500 7.644980 -69.891400 -5.348130 -0.000001 -0.000004 -68.090600 29.764700 -5.437480 -24.328900 0.000322 -0.000009 1.312150 4.942940 -14.898400 -22.291500 -0.000108 -0.000004 -1.533010 5.310070 -0.211721 -2.192480 -6.469440 -0.000000 -174.766000 4.884670 -2.582430 39.081100 -0.000007 -0.000012 0.350313 -0.683972 27.121200 40.985400 -0.000006 -0.000013 -0.158354 2.879390 -74.903000 11.754300 -0.000000 0.000003 -0.000679 0.178357 -9.342070 -2.192510 6.469440 -0.000001 -171.793000 13.207500 -175.677000 -39.081100 -0.002282 -0.040193 0.130535 -0.467174 15.231900 -40.985400 0.000008 0.000006 6.313760 1.531390 -70.821400 -11.754300 -0.000006 -0.000006 -0.008539 0.260046 -6.011260
0.000000 0.000000 0.000000 0.000000 0.000000 -0.000000 -4.339840 92.077200 -1.546570 85.892600 2.986850 5.701010 15.735700 0.000005 -0.000001 86.609800 86.159900 -84.669200 8.984550 -0.406207 -0.000000 -0.086392 -0.586966 3.878450 16.377300 -0.000001 -0.000001 7.444860 0.505112 -1.540970 6.456720 -0.000001 -0.000000 -5.898570 -1.459270 1.881000 12.994200 -0.242716 4.980390 -93.947600 11.105000 -70.288200 5.348090 -0.000007 -0.000001 -68.191200 3.845310 -1.754410 24.328600 0.000019 0.000005 13.006800 24.909500 -28.740900 22.291600 -0.000001 0.000005 -11.036100 4.905350 9.271900 12.994500 -0.242716 -4.980390 87.234000 7.597730 -69.927400 -5.348130 -0.000001 -0.000004 -68.254000 29.775100 -5.257470 -24.328900 0.000322 -0.000009 1.240660 4.648380 -14.973900 -22.291500 -0.000108 -0.000004 -1.537770 5.309810 -0.204445 -2.192480 -6.469440 -0.000000 -174.737000 4.695440 -2.615600 39.081100 -0.000007 -0.000012 0.344785 -0.676458 27.008300 40.985400 -0.000006 -0.000013 -0.175844 3.015790 -74.776700 11.754300 -0.000000 0.000003 -0.000591 0.177046 -9.395360 -2.192510 6.469440 -0.000001 -171.747000 13.008200 -175.723000 -39.081100 -0.002282 -0.040193 0.129887 -0.468151 15.127500 -40.985400 0.000008 0.000006 6.368700 1.370970 -70.717400 -11.754300 -0.000006 -0.000006 -0.008541 0.260063 -6.010570
0.000000 0.000000 0.000000 0.000000 0.000000 -0.000000 -4.405040 92.104600 -1.569250 86.017300 2.963980 5.543600 15.735700 0.000005 -0.000001 86.809200 86.177400 -84.887400 8.984550 -0.406207 -0.000000 -0.120492 -0.557626 3.840570 16.377300 -0.000001 -0.000001 7.081510 0.479643 -2.017130 6.456720 -0.000001 -0.000000 -6.076340 -1.547650 0.789612 12.994200 -0.242716 4.980390 -93.971500 11.132600 -70.222500 5.348090 -0.000007 -0.000001 -66.723600 -0.750283 -2.319830 24.328600 0.000019 0.000005 15.105000 24.647800 -32.910400 22.291600 -0.000001 0.000005 -10.761700 4.887170 9.631220 12.994500 -0.242716 -4.980390 87.247000 7.613340 -70.051700 -5.348130 -0.000001 -0.000004 -68.321300 29.715000 -5.106070 -24.328900 0.000322 -0.000009 1.228580 4.585600 -15.028200 -22.291500 -0.000108 -0.000004 -1.557050 5.310150 -0.214321 -2.192480 -6.469440 -0.000000 -174.761000 4.418320 -2.660470 39.081100 -0.000007 -0.000012 0.338220 -0.670471 26.769400 40.985400 -0.000006 -0.000013 -0.167919 3.245460 -74.688900 11.754300 -0.000000 0.000003 -0.000557 0.176522 -9.416630 -2.192510 6.469440 -0.000001 -171.809000 13.005300 -175.821000 -39.081100 -0.002282 -0.040193 0.127270 -0.462593 14.998800 -40.985400 0.000008 0.000006 6.352420 1.400570 -70.680000 -11.754300 -0.000006 -0.000006 -0.008772 0.261890 -5.935920
0.000000 0.000000 0.000000 0.000000 0.000000 -0.000000 -4.472620 92.133500 -1.597840 86.092900 2.925830 5.391220 15.735700 0.000005 -0.000001 87.065700 86.204800 -85.126400 8.984550 -0.406207 -0.000000 -0.173793 -0.522763 3.875520 16.377300 -0.000001 -0.000001 6.744140 0.490679 -2.595720 6.456720 -0.000001 -0.000000 -6.212090 -1.530640 -0.636478 12.994200 -0.242716 4.980390 -93.945500 11.034400 -70.183100 5.348090 -0.000007 -0.000001 -65.546200 -5.612870 -2.743700 24.328600 0.000019 0.000005 17.432200 23.555300 -38.156900 22.291600 -0.000001 0.000005 -8.225600 4.834250 10.655100 12.994500 -0.242716 -4.980390 87.247200 7.646350 -70.131900 -5.348130 -0.000001 -0.000004 -68.280000 29.733600 -5.060200 -24.328900 0.000322 -0.000009 1.211490 4.539990 -14.970600 -22.291500 -0.000108 -0.000004 -1.439460 5.310430 -0.221949 -2.192480 -6.469440 -0.000000 -174.720000 4.155670 -2.729170 39.081100 -0.000007 -0.000012 0.328882 -0.658332 26.546000 40.985400 -0.000006 -0.000013 -0.170900 3.491650 -74.526100 11.754300 -0.000000 0.000003 -0.000514 0.175874 -9.442950 -2.192510 6.469440 -0.000001 -171.816000 12.928800 -175.943000 -39.081100 -0.002282 -0.040193 0.121477 -0.444847 14.873900 -40.985400 0.000008 0.000006 6.193470 1.426940 -70.514300 -11.754300 -0.000006 -0.000006 -0.008450 0.259337 -6.040200
